HIERARCHY
ROOT Hips
{
	OFFSET 0.00 0.00 0.00
	CHANNELS 6 Xposition Yposition Zposition Xrotation Yrotation Zrotation
	JOINT Spine
	{
		OFFSET 0.00000 1.72418 2.58627
		CHANNELS 3 Xrotation Yrotation Zrotation
		JOINT Spine1
		{
			OFFSET 0.00000 0.59880 3.39597
			CHANNELS 3 Xrotation Yrotation Zrotation
			JOINT Spine2
			{
				OFFSET 0.00000 0.30055 3.43524
				CHANNELS 3 Xrotation Yrotation Zrotation
				JOINT Spine3
				{
					OFFSET 0.00000 0.00000 3.44836
					CHANNELS 3 Xrotation Yrotation Zrotation
					JOINT Neck
					{
						OFFSET 0.00000 -1.29313 9.05195
						CHANNELS 3 Xrotation Yrotation Zrotation
						JOINT Head
						{
							OFFSET 0.00000 -0.82335 4.66946
							CHANNELS 3 Xrotation Yrotation Zrotation
							End Site
							{
								OFFSET 0.00000 0.00001 5.58203
							}
						}
					}
					JOINT RightShoulder
					{
						OFFSET -1.18828 -1.98046 6.41673
						CHANNELS 3 Xrotation Yrotation Zrotation
						JOINT RightArm
						{
							OFFSET -5.90180 0.00000 0.00000
							CHANNELS 3 Xrotation Yrotation Zrotation
							JOINT RightForeArm
							{
								OFFSET -11.45951 0.00000 0.00000
								CHANNELS 3 Xrotation Yrotation Zrotation
								JOINT RightHand
								{
									OFFSET -10.63451 0.00000 0.00000
									CHANNELS 3 Xrotation Yrotation Zrotation
									JOINT RightHandEnd
									{
										OFFSET -2.86944 0.00000 0.00000
										CHANNELS 3 Xrotation Yrotation Zrotation
										End Site
										{
											OFFSET -2.86944 0.00000 0.00000
										}
									}
									JOINT RightHandThumb1
									{
										OFFSET -1.14778 -1.91296 -0.76518
										CHANNELS 3 Yrotation Xrotation Zrotation
										End Site
										{
											OFFSET -2.77167 -0.74267 0.00000
										}
									}
								}
							}
						}
					}
					JOINT LeftShoulder
					{
						OFFSET 1.18828 -1.98046 6.41673
						CHANNELS 3 Xrotation Yrotation Zrotation
						JOINT LeftArm
						{
							OFFSET 5.90180 0.00000 0.00000
							CHANNELS 3 Xrotation Yrotation Zrotation
							JOINT LeftForeArm
							{
								OFFSET 11.45951 0.00000 0.00000
								CHANNELS 3 Xrotation Yrotation Zrotation
								JOINT LeftHand
								{
									OFFSET 10.63451 0.00000 0.00000
									CHANNELS 3 Xrotation Yrotation Zrotation
									JOINT LeftHandEnd
									{
										OFFSET 2.86944 0.00000 0.00000
										CHANNELS 3 Xrotation Yrotation Zrotation
										End Site
										{
											OFFSET 2.86944 0.00000 0.00000
										}
									}
									JOINT LeftHandThumb1
									{
										OFFSET 1.14778 -1.91296 -0.76518
										CHANNELS 3 Yrotation Xrotation Zrotation
										End Site
										{
											OFFSET 2.77167 -0.74267 0.00000
										}
									}
								}
							}
						}
					}
				}
			}
		}
	}
	JOINT RightUpLeg
	{
		OFFSET -3.52524 0.00000 -1.02984
		CHANNELS 3 Xrotation Yrotation Zrotation
		JOINT RightLeg
		{
			OFFSET 0.00001 0.00000 -17.80965
			CHANNELS 3 Xrotation Yrotation Zrotation
			JOINT RightFoot
			{
				OFFSET 0.00001 0.00000 -17.00908
				CHANNELS 3 Xrotation Yrotation Zrotation
				JOINT RightToeBase
				{
					OFFSET 0.00000 -5.55853 -2.02314
					CHANNELS 3 Xrotation Yrotation Zrotation
					End Site
					{
						OFFSET 0.00000 -2.85188 -0.00000
					}
				}
			}
		}
	}
	JOINT LeftUpLeg
	{
		OFFSET 3.52524 0.00000 -1.02984
		CHANNELS 3 Xrotation Yrotation Zrotation
		JOINT LeftLeg
		{
			OFFSET 0.00001 0.00000 -17.80965
			CHANNELS 3 Xrotation Yrotation Zrotation
			JOINT LeftFoot
			{
				OFFSET 0.00001 0.00000 -17.00908
				CHANNELS 3 Xrotation Yrotation Zrotation
				JOINT LeftToeBase
				{
					OFFSET 0.00000 -5.55853 -2.02314
					CHANNELS 3 Xrotation Yrotation Zrotation
					End Site
					{
						OFFSET 0.00000 -2.85188 -0.00000
					}
				}
			}
		}
	}
}
MOTION
Frames: 17
Frame Time: 0.008342
 5.0199 -94.1778 36.3443 -2.7755 1.9208 -179.1638 0.4055 -0.5578 -0.4408 0.2471 -0.5822 -0.0988 1.2198 -0.6046 1.3790 0.4767 0.2239 0.2432 3.8941 0.8284 -0.5344 3.7061 1.4398 -2.5534 0.4860 6.6356 -1.0301 -19.9166 2.1848 -0.2420 0.0000 0.0000 22.4938 -9.3590 23.5065 1.4240 0.0000 0.0000 0.0000 0.0000 -0.0000 0.0000 0.5521 -7.1853 0.0903 -31.7113 -0.9669 4.4552 -0.0000 -0.0000 -32.4685 -3.4865 -23.8877 -3.1119 -0.0000 0.0000 0.0000 0.0000 0.0000 -0.0000 -10.9580 2.5894 -27.3150 22.0760 0.0000 0.0000 -16.9805 1.5385 2.9588 2.2479 0.0000 0.0000 -5.0996 -3.6887 11.3912 15.5545 0.0000 0.0000 -11.9141 4.0502 9.1415 -0.9813 0.0000 -0.0000
 5.0140 -94.1784 36.3514 -2.7450 1.9023 -179.1896 0.3549 -0.5551 -0.4460 0.2388 -0.5753 -0.0984 1.2388 -0.6406 1.3650 0.4851 0.1996 0.2558 3.9168 0.8424 -0.5112 3.6795 1.4531 -2.5263 0.4459 6.6810 -0.9738 -19.9169 2.1755 -0.2143 0.0000 0.0000 22.4741 -9.3906 23.5364 1.4287 0.0000 -0.0000 -0.0000 -0.0000 -0.0000 -0.0000 0.5812 -7.1776 0.1037 -31.7569 -0.9123 4.4929 -0.0000 -0.0000 -32.5276 -3.4507 -23.8941 -3.1176 -0.0000 -0.0000 -0.0000 0.0000 0.0000 0.0000 -10.8328 2.5849 -27.5585 21.9050 0.0000 0.0000 -16.9121 1.4769 3.2191 2.2765 0.0000 0.0000 -5.0037 -3.7018 11.5008 15.4303 0.0000 0.0000 -11.8508 4.0914 9.0531 -0.9885 0.0000 -0.0000
 5.0072 -94.1793 36.3601 -2.6974 1.8782 -179.2215 0.3013 -0.5496 -0.4506 0.2239 -0.5627 -0.0985 1.2645 -0.6902 1.3475 0.4958 0.1721 0.2727 3.9456 0.8473 -0.4895 3.6471 1.4698 -2.4897 0.3943 6.7265 -0.9094 -19.9089 2.1680 -0.1684 0.0000 0.0000 22.4427 -9.4226 23.5656 1.4305 -0.0000 0.0000 -0.0000 0.0000 -0.0000 -0.0000 0.6129 -7.1664 0.1144 -31.7893 -0.8548 4.5290 -0.0000 -0.0000 -32.5850 -3.4076 -23.8938 -3.1261 -0.0000 -0.0000 0.0000 0.0000 -0.0000 0.0000 -10.6613 2.5719 -27.8623 21.6791 0.0000 0.0000 -16.8294 1.4081 3.5430 2.3154 0.0000 0.0000 -4.8647 -3.7199 11.6461 15.2578 0.0000 0.0000 -11.7724 4.1457 8.9337 -0.9902 0.0000 -0.0000
 5.0003 -94.1806 36.3699 -2.6271 1.8446 -179.2563 0.2523 -0.5452 -0.4563 0.2034 -0.5459 -0.0989 1.2951 -0.7486 1.3274 0.5082 0.1416 0.2927 3.9798 0.8377 -0.4715 3.6111 1.4887 -2.4434 0.3322 6.7663 -0.8389 -19.8895 2.1643 -0.1036 0.0000 0.0000 22.3996 -9.4549 23.5925 1.4298 -0.0000 -0.0000 -0.0000 -0.0000 -0.0000 0.0000 0.6476 -7.1527 0.1211 -31.8027 -0.7991 4.5588 -0.0000 -0.0000 -32.6342 -3.3551 -23.8841 -3.1353 0.0000 -0.0000 -0.0000 -0.0000 0.0000 0.0000 -10.4379 2.5430 -28.2203 21.3968 0.0000 0.0000 -16.7328 1.3360 3.9209 2.3644 0.0000 0.0000 -4.6792 -3.7472 11.8235 15.0406 0.0000 0.0000 -11.6833 4.2110 8.7836 -0.9835 0.0000 -0.0000
 4.9932 -94.1835 36.3802 -2.5534 1.8047 -179.2927 0.1894 -0.5381 -0.4622 0.1823 -0.5283 -0.0982 1.3280 -0.8097 1.3047 0.5222 0.1088 0.3146 4.0166 0.8093 -0.4597 3.5732 1.5088 -2.3885 0.2624 6.7917 -0.7680 -19.8583 2.1677 -0.0160 0.0000 0.0000 22.3446 -9.4820 23.6178 1.4244 0.0000 -0.0000 -0.0000 0.0000 -0.0000 0.0000 0.6818 -7.1355 0.1221 -31.7919 -0.7503 4.5775 -0.0000 -0.0000 -32.6702 -3.2948 -23.8660 -3.1446 0.0000 0.0000 0.0000 0.0000 0.0000 0.0000 -10.1917 2.5006 -28.6139 21.0713 0.0000 0.0000 -16.6274 1.2664 4.3354 2.4219 0.0000 0.0000 -4.4728 -3.7795 12.0244 14.7868 0.0000 0.0000 -11.5873 4.2816 8.6111 -0.9656 0.0000 -0.0000
 4.9866 -94.1876 36.3905 -2.4684 1.7574 -179.3275 0.1265 -0.5304 -0.4680 0.1590 -0.5094 -0.0973 1.3623 -0.8727 1.2798 0.5369 0.0763 0.3373 4.0544 0.7593 -0.4568 3.5370 1.5291 -2.3262 0.1897 6.7997 -0.7016 -19.8152 2.1777 0.0935 0.0000 0.0000 22.2798 -9.5049 23.6421 1.4153 -0.0000 0.0000 -0.0000 -0.0000 0.0000 -0.0000 0.7135 -7.1153 0.1159 -31.7522 -0.7131 4.5813 -0.0000 -0.0000 -32.6878 -3.2263 -23.8383 -3.1524 0.0000 0.0000 -0.0000 0.0000 0.0000 -0.0000 -9.9174 2.4413 -29.0312 20.7085 0.0000 0.0000 -16.5161 1.2031 4.7719 2.4862 0.0000 0.0000 -4.2408 -3.8179 12.2415 14.5033 0.0000 0.0000 -11.4890 4.3526 8.4208 -0.9358 0.0000 -0.0000
 4.9806 -94.1931 36.4004 -2.3757 1.7030 -179.3575 0.0649 -0.5229 -0.4736 0.1343 -0.4898 -0.0962 1.3966 -0.9345 1.2528 0.5517 0.0456 0.3597 4.0901 0.6862 -0.4645 3.5067 1.5486 -2.2596 0.1182 6.7862 -0.6444 -19.7607 2.1942 0.2238 0.0000 0.0000 22.2079 -9.5185 23.6658 1.4015 0.0000 0.0000 0.0000 0.0000 -0.0000 0.0000 0.7424 -7.0916 0.1013 -31.6837 -0.6915 4.5673 -0.0000 -0.0000 -32.6840 -3.1535 -23.8020 -3.1583 0.0000 -0.0000 -0.0000 0.0000 -0.0000 -0.0000 -9.6263 2.3645 -29.4530 20.3204 0.0000 0.0000 -16.4029 1.1506 5.2099 2.5544 0.0000 0.0000 -3.9944 -3.8619 12.4625 14.2029 0.0000 0.0000 -11.3940 4.4175 8.2216 -0.8929 0.0000 -0.0000
 4.9755 -94.2002 36.4093 -2.2764 1.6431 -179.3793 0.0096 -0.5155 -0.4786 0.1094 -0.4705 -0.0954 1.4282 -0.9919 1.2236 0.5655 0.0181 0.3803 4.1216 0.5902 -0.4837 3.4849 1.5655 -2.1907 0.0521 6.7493 -0.6004 -19.6968 2.2163 0.3708 0.0000 0.0000 22.1341 -9.5205 23.6903 1.3831 -0.0000 -0.0000 -0.0000 0.0000 -0.0000 -0.0000 0.7661 -7.0650 0.0781 -31.5875 -0.6872 4.5343 -0.0000 -0.0000 -32.6577 -3.0793 -23.7589 -3.1613 0.0000 0.0000 0.0000 -0.0000 -0.0000 -0.0000 -9.3270 2.2718 -29.8605 19.9206 0.0000 0.0000 -16.2919 1.1128 5.6287 2.6233 0.0000 0.0000 -3.7423 -3.9093 12.6741 13.8989 0.0000 0.0000 -11.3070 4.4698 8.0243 -0.8375 0.0000 -0.0000
 4.9712 -94.2088 36.4170 -2.1760 1.5798 -179.3906 -0.0407 -0.5085 -0.4819 0.0849 -0.4517 -0.0945 1.4568 -1.0431 1.1914 0.5779 -0.0047 0.3979 4.1464 0.4735 -0.5144 3.4744 1.5785 -2.1225 -0.0049 6.6882 -0.5731 -19.6255 2.2432 0.5311 0.0000 0.0000 22.0631 -9.5083 23.7165 1.3596 -0.0000 0.0000 -0.0000 -0.0000 0.0000 0.0000 0.7828 -7.0354 0.0463 -31.4672 -0.7009 4.4824 -0.0000 -0.0000 -32.6103 -3.0037 -23.7120 -3.1600 0.0000 0.0000 0.0000 0.0000 -0.0000 -0.0000 -9.0332 2.1665 -30.2355 19.5238 0.0000 0.0000 -16.1870 1.0921 6.0092 2.6902 0.0000 0.0000 -3.4983 -3.9580 12.8624 13.6058 0.0000 0.0000 -11.2328 4.5032 7.8400 -0.7712 0.0000 -0.0000
 4.9680 -94.2190 36.4233 -2.0749 1.5110 -179.3876 -0.0824 -0.5031 -0.4842 0.0617 -0.4367 -0.0947 1.4812 -1.0861 1.1556 0.5880 -0.0216 0.4117 4.1630 0.3398 -0.5563 3.4765 1.5875 -2.0578 -0.0502 6.6047 -0.5638 -19.5481 2.2727 0.6983 0.0000 0.0000 22.0007 -9.4871 23.7470 1.3358 -0.0000 0.0000 -0.0000 -0.0000 -0.0000 0.0000 0.7933 -7.0031 0.0069 -31.3311 -0.7312 4.4135 -0.0000 -0.0000 -32.5450 -2.9303 -23.6642 -3.1548 0.0000 -0.0000 -0.0000 -0.0000 -0.0000 0.0000 -8.7502 2.0479 -30.5655 19.1397 0.0000 0.0000 -16.0888 1.0897 6.3356 2.7507 0.0000 0.0000 -3.2716 -4.0109 13.0157 13.3400 0.0000 0.0000 -11.1765 4.5130 7.6763 -0.6959 0.0000 -0.0000
 4.9655 -94.2305 36.4281 -1.9759 1.4387 -179.3687 -0.1153 -0.5015 -0.4856 0.0404 -0.4237 -0.0950 1.5005 -1.1195 1.1158 0.5958 -0.0329 0.4207 4.1702 0.1944 -0.6080 3.4918 1.5913 -1.9993 -0.0829 6.5024 -0.5728 -19.4676 2.3019 0.8653 0.0000 0.0000 21.9534 -9.4501 23.7809 1.3095 -0.0000 0.0000 -0.0000 0.0000 -0.0000 -0.0000 0.7959 -6.9694 -0.0398 -31.1869 -0.7740 4.3317 -0.0000 -0.0000 -32.4667 -2.8597 -23.6188 -3.1444 -0.0000 -0.0000 0.0000 0.0000 0.0000 0.0000 -8.4866 1.9203 -30.8407 18.7797 0.0000 0.0000 -15.9990 1.1056 6.5969 2.8041 0.0000 0.0000 -3.0727 -4.0666 13.1229 13.1149 0.0000 0.0000 -11.1410 4.4961 7.5420 -0.6151 0.0000 -0.0000
 4.9635 -94.2434 36.4315 -1.8824 1.3639 -179.3329 -0.1414 -0.5035 -0.4857 0.0214 -0.4132 -0.0958 1.5149 -1.1442 1.0711 0.6009 -0.0383 0.4245 4.1678 0.0433 -0.6671 3.5193 1.5896 -1.9485 -0.1030 6.3862 -0.5982 -19.3854 2.3288 1.0251 0.0000 0.0000 21.9264 -9.4008 23.8189 1.2834 0.0000 0.0000 0.0000 -0.0000 -0.0000 0.0000 0.7925 -6.9346 -0.0923 -31.0451 -0.8247 4.2419 -0.0000 -0.0000 -32.3823 -2.7940 -23.5789 -3.1301 -0.0000 -0.0000 -0.0000 -0.0000 0.0000 0.0000 -8.2496 1.7880 -31.0561 18.4520 0.0000 0.0000 -15.9180 1.1382 6.7873 2.8473 0.0000 0.0000 -2.9110 -4.1245 13.1767 12.9420 0.0000 0.0000 -11.1278 4.4517 7.4427 -0.5318 0.0000 -0.0000
 4.9617 -94.2575 36.4337 -1.7960 1.2874 -179.2803 -0.1622 -0.5097 -0.4848 0.0048 -0.4047 -0.0971 1.5250 -1.1609 1.0212 0.6036 -0.0387 0.4234 4.1559 -0.1066 -0.7314 3.5572 1.5829 -1.9074 -0.1117 6.2625 -0.6375 -19.3019 2.3505 1.1708 0.0000 0.0000 21.9238 -9.3365 23.8606 1.2582 -0.0000 0.0000 0.0000 0.0000 -0.0000 0.0000 0.7832 -6.8998 -0.1492 -30.9148 -0.8765 4.1490 -0.0000 -0.0000 -32.2979 -2.7370 -23.5472 -3.1126 -0.0000 -0.0000 0.0000 0.0000 0.0000 -0.0000 -8.0423 1.6549 -31.2147 18.1617 0.0000 0.0000 -15.8446 1.1844 6.9093 2.8799 0.0000 0.0000 -2.7921 -4.1847 13.1741 12.8290 0.0000 0.0000 -11.1371 4.3813 7.3806 -0.4496 0.0000 -0.0000
 4.9599 -94.2725 36.4349 -1.7184 1.2093 -179.2121 -0.1808 -0.5203 -0.4835 -0.0086 -0.3984 -0.0985 1.5310 -1.1715 0.9661 0.6041 -0.0353 0.4180 4.1356 -0.2484 -0.7979 3.6026 1.5715 -1.8768 -0.1114 6.1386 -0.6865 -19.2178 2.3641 1.2959 0.0000 0.0000 21.9485 -9.2596 23.9044 1.2350 -0.0000 -0.0000 -0.0000 -0.0000 -0.0000 -0.0000 0.7698 -6.8660 -0.2090 -30.8054 -0.9231 4.0588 -0.0000 -0.0000 -32.2203 -2.6897 -23.5243 -3.0938 -0.0000 -0.0000 0.0000 -0.0000 -0.0000 0.0000 -7.8664 1.5236 -31.3249 17.9099 0.0000 0.0000 -15.7771 1.2398 6.9713 2.9015 0.0000 0.0000 -2.7199 -4.2477 13.1162 12.7804 0.0000 0.0000 -11.1675 4.2891 7.3549 -0.3725 0.0000 -0.0000
 4.9575 -94.2884 36.4354 -1.6488 1.1311 -179.1307 -0.1974 -0.5351 -0.4816 -0.0211 -0.3933 -0.1000 1.5348 -1.1774 0.9061 0.6029 -0.0290 0.4095 4.1086 -0.3774 -0.8641 3.6520 1.5561 -1.8558 -0.1054 6.0208 -0.7410 -19.1316 2.3680 1.3955 0.0000 0.0000 22.0007 -9.1716 23.9482 1.2164 -0.0000 -0.0000 -0.0000 0.0000 0.0000 -0.0000 0.7535 -6.8355 -0.2709 -30.7220 -0.9571 3.9772 -0.0000 -0.0000 -32.1549 -2.6506 -23.5127 -3.0741 0.0000 0.0000 0.0000 0.0000 -0.0000 -0.0000 -7.7192 1.3983 -31.3976 17.6958 0.0000 0.0000 -15.7140 1.2998 6.9852 2.9131 0.0000 0.0000 -2.6924 -4.3125 13.0081 12.7952 0.0000 0.0000 -11.2160 4.1813 7.3624 -0.3026 0.0000 -0.0000
 4.9547 -94.3050 36.4355 -1.5926 1.0504 -179.0395 -0.2213 -0.5562 -0.4782 -0.0314 -0.3894 -0.1042 1.5385 -1.1802 0.8464 0.6004 -0.0210 0.3969 4.0763 -0.4893 -0.9278 3.7018 1.5381 -1.8443 -0.0963 5.9116 -0.7974 -19.0409 2.3649 1.4687 0.0000 0.0000 22.0780 -9.0738 23.9890 1.2015 0.0000 -0.0000 0.0000 0.0000 0.0000 -0.0000 0.7360 -6.8094 -0.3338 -30.6697 -0.9731 3.9078 -0.0000 -0.0000 -32.1056 -2.6220 -23.5106 -3.0561 0.0000 -0.0000 -0.0000 -0.0000 0.0000 -0.0000 -7.6034 1.2777 -31.4470 17.5144 0.0000 0.0000 -15.6518 1.3592 6.9670 2.9162 0.0000 0.0000 -2.7135 -4.3824 12.8608 12.8712 0.0000 0.0000 -11.2801 4.0651 7.3949 -0.2418 0.0000 -0.0000
 4.9509 -94.3218 36.4354 -1.5358 0.9711 -178.9426 -0.2399 -0.5794 -0.4758 -0.0406 -0.3859 -0.1063 1.5410 -1.1825 0.7831 0.5978 -0.0133 0.3843 4.0409 -0.5804 -0.9864 3.7490 1.5187 -1.8414 -0.0868 5.8214 -0.8508 -18.9453 2.3487 1.5114 0.0000 0.0000 22.1772 -8.9641 24.0244 1.1908 -0.0000 0.0000 -0.0000 0.0000 -0.0000 0.0000 0.7194 -6.7890 -0.3965 -30.6471 -0.9673 3.8540 -0.0000 -0.0000 -32.0738 -2.6057 -23.5171 -3.0419 0.0000 -0.0000 -0.0000 -0.0000 0.0000 0.0000 -7.4999 1.1671 -31.4911 17.3602 0.0000 0.0000 -15.5909 1.4127 6.9374 2.9131 0.0000 0.0000 -2.7607 -4.4528 12.6842 12.9955 0.0000 0.0000 -11.3533 3.9495 7.4470 -0.1923 0.0000 -0.0000
